<svg width="15" height="21" viewBox="0 0 15 21" fill="none" xmlns="http://www.w3.org/2000/svg">
<path d="M6.71875 19.8744C1.01562 11.6713 0 10.8119 0 7.76501C0 3.62439 3.32031 0.265015 7.5 0.265015C11.6406 0.265015 15 3.62439 15 7.76501C15 10.8119 13.9453 11.6713 8.24219 19.8744C7.89062 20.4213 7.07031 20.4213 6.71875 19.8744ZM7.5 10.89C9.21875 10.89 10.625 9.52283 10.625 7.76501C10.625 6.04626 9.21875 4.64001 7.5 4.64001C5.74219 4.64001 4.375 6.04626 4.375 7.76501C4.375 9.52283 5.74219 10.89 7.5 10.89Z" fill="white"/>
</svg>
