<svg width="16" height="17" viewBox="0 0 16 17" fill="none" xmlns="http://www.w3.org/2000/svg">
<path d="M13.5516 3.19531C15.0281 4.67188 15.9422 6.60547 15.9422 8.71484C15.9422 13.0039 12.3562 16.5195 8.03203 16.5195C6.73125 16.5195 5.46562 16.168 4.30547 15.5703L0.192187 16.625L1.28203 12.582C0.614062 11.4219 0.227344 10.0859 0.227344 8.67969C0.227344 4.39062 3.74297 0.875 8.03203 0.875C10.1414 0.875 12.1102 1.71875 13.5516 3.19531ZM8.03203 15.1836C11.618 15.1836 14.6062 12.2656 14.6062 8.71484C14.6062 6.95703 13.868 5.33984 12.6375 4.10938C11.407 2.87891 9.78984 2.21094 8.06719 2.21094C4.48125 2.21094 1.56328 5.12891 1.56328 8.67969C1.56328 9.91016 1.91484 11.1055 2.54766 12.1602L2.72344 12.4062L2.05547 14.7969L4.51641 14.1289L4.72734 14.2695C5.74687 14.8672 6.87187 15.1836 8.03203 15.1836ZM11.618 10.332C11.7937 10.4375 11.9344 10.4727 11.9695 10.5781C12.0398 10.6484 12.0398 11.0352 11.8641 11.4922C11.6883 11.9492 10.9148 12.3711 10.5633 12.4062C9.93047 12.5117 9.43828 12.4766 8.20781 11.9141C6.23906 11.0703 4.97344 9.10156 4.86797 8.99609C4.7625 8.85547 4.09453 7.94141 4.09453 6.95703C4.09453 6.00781 4.58672 5.55078 4.7625 5.33984C4.93828 5.12891 5.14922 5.09375 5.28984 5.09375C5.39531 5.09375 5.53594 5.09375 5.64141 5.09375C5.78203 5.09375 5.92266 5.05859 6.09844 5.44531C6.23906 5.83203 6.66094 6.78125 6.69609 6.88672C6.73125 6.99219 6.76641 7.09766 6.69609 7.23828C6.34453 7.97656 5.92266 7.94141 6.13359 8.29297C6.90703 9.59375 7.64531 10.0508 8.80547 10.6133C8.98125 10.7188 9.08672 10.6836 9.22734 10.5781C9.33281 10.4375 9.71953 9.98047 9.825 9.80469C9.96562 9.59375 10.1062 9.62891 10.282 9.69922C10.4578 9.76953 11.407 10.2266 11.618 10.332Z" fill="#0F2F24"/>
</svg>
