<svg width="19" height="18" viewBox="0 0 19 18" fill="none" xmlns="http://www.w3.org/2000/svg">
<path d="M9.75 4.48438C12.2109 4.48438 14.2422 6.51562 14.2422 8.97656C14.2422 11.4766 12.2109 13.4688 9.75 13.4688C7.25 13.4688 5.25781 11.4766 5.25781 8.97656C5.25781 6.51562 7.25 4.48438 9.75 4.48438ZM9.75 11.9062C11.3516 11.9062 12.6406 10.6172 12.6406 8.97656C12.6406 7.375 11.3516 6.08594 9.75 6.08594C8.10938 6.08594 6.82031 7.375 6.82031 8.97656C6.82031 10.6172 8.14844 11.9062 9.75 11.9062ZM15.4531 4.32812C15.4531 4.91406 14.9844 5.38281 14.3984 5.38281C13.8125 5.38281 13.3438 4.91406 13.3438 4.32812C13.3438 3.74219 13.8125 3.27344 14.3984 3.27344C14.9844 3.27344 15.4531 3.74219 15.4531 4.32812ZM18.4219 5.38281C18.5 6.82812 18.5 11.1641 18.4219 12.6094C18.3438 14.0156 18.0312 15.2266 17.0156 16.2812C16 17.2969 14.75 17.6094 13.3438 17.6875C11.8984 17.7656 7.5625 17.7656 6.11719 17.6875C4.71094 17.6094 3.5 17.2969 2.44531 16.2812C1.42969 15.2266 1.11719 14.0156 1.03906 12.6094C0.960938 11.1641 0.960938 6.82812 1.03906 5.38281C1.11719 3.97656 1.42969 2.72656 2.44531 1.71094C3.5 0.695312 4.71094 0.382812 6.11719 0.304688C7.5625 0.226562 11.8984 0.226562 13.3438 0.304688C14.75 0.382812 16 0.695312 17.0156 1.71094C18.0312 2.72656 18.3438 3.97656 18.4219 5.38281ZM16.5469 14.1328C17.0156 13 16.8984 10.2656 16.8984 8.97656C16.8984 7.72656 17.0156 4.99219 16.5469 3.82031C16.2344 3.07812 15.6484 2.45312 14.9062 2.17969C13.7344 1.71094 11 1.82812 9.75 1.82812C8.46094 1.82812 5.72656 1.71094 4.59375 2.17969C3.8125 2.49219 3.22656 3.07812 2.91406 3.82031C2.44531 4.99219 2.5625 7.72656 2.5625 8.97656C2.5625 10.2656 2.44531 13 2.91406 14.1328C3.22656 14.9141 3.8125 15.5 4.59375 15.8125C5.72656 16.2812 8.46094 16.1641 9.75 16.1641C11 16.1641 13.7344 16.2812 14.9062 15.8125C15.6484 15.5 16.2734 14.9141 16.5469 14.1328Z" fill="white"/>
</svg>
