<svg width="58" height="38" viewBox="0 0 58 38" fill="none" xmlns="http://www.w3.org/2000/svg">
<path d="M29.0731 7.8125V7.91016C35.1278 7.91016 40.0106 12.793 40.0106 18.75C40.0106 24.8047 35.1278 29.6875 29.0731 29.6875C23.0184 29.6875 18.1356 24.8047 18.1356 18.75C18.1356 17.6758 18.3309 16.6992 18.6239 15.7227C19.3075 16.2109 20.2841 16.4062 21.2606 16.4062C24.1903 16.4062 26.7294 13.9648 26.7294 10.9375C26.6317 10.0586 26.4364 9.08203 25.9481 8.30078C26.9247 8.00781 27.9989 7.91016 29.0731 7.8125ZM56.8075 17.3828C57.0028 17.7734 57.1005 18.2617 57.1005 18.8477C57.1005 19.3359 57.0028 19.8242 56.8075 20.2148C51.5341 30.5664 40.9872 37.5 29.0731 37.5C17.0614 37.5 6.51453 30.5664 1.24109 20.2148C1.04578 19.8242 0.948124 19.3359 0.948124 18.75C0.948124 18.2617 1.04578 17.7734 1.24109 17.3828C6.51453 7.03125 17.0614 0 29.0731 0C40.9872 0 51.5341 7.03125 56.8075 17.3828ZM29.0731 32.8125C38.6434 32.8125 47.5302 27.4414 52.2177 18.75C47.5302 10.0586 38.6434 4.6875 29.0731 4.6875C19.4052 4.6875 10.5184 10.0586 5.83094 18.75C10.5184 27.4414 19.4052 32.8125 29.0731 32.8125Z" fill="#D1A345"/>
</svg>
